<svg width="364" height="231" viewBox="0 0 364 231" fill="none" xmlns="http://www.w3.org/2000/svg">
<g clip-path="url(#clip0_36_2)">
<rect width="364" height="231" fill="white" fill-opacity="0.11"/>
<path d="M77.01 158.151C75.802 158.151 74.9463 157.849 74.443 157.245C74.0403 156.641 73.839 155.785 73.839 154.678C73.839 152.463 74.3423 149.041 75.349 144.41C76.4563 140.182 77.01 136.709 77.01 133.991C77.01 126.139 76.406 120.149 75.198 116.022H70.517C66.3897 116.022 61.004 115.921 54.36 115.72L40.166 115.569H19.781L20.083 121.458C20.083 126.089 20.838 131.877 22.348 138.823C22.8513 141.642 23.3043 144.511 23.707 147.43C24.2103 150.249 24.462 152.816 24.462 155.131V156.49C23.4553 157.497 22.3983 158 21.291 158C18.6737 158 16.61 154.93 15.1 148.789C13.59 142.548 12.835 135.048 12.835 126.29C12.835 122.767 12.986 119.294 13.288 115.871C11.0733 115.77 9.56333 115.418 8.758 114.814C7.95267 114.109 7.55 113.052 7.55 111.643C7.55 110.536 7.852 109.781 8.456 109.378C9.16067 108.975 10.3687 108.673 12.08 108.472L11.929 104.395L12.382 97.449C13.0867 86.0737 14.1437 76.8123 15.553 69.665C16.9623 62.5177 19.9823 56.3267 24.613 51.092C29.2437 45.8573 36.1897 43.24 45.451 43.24C56.021 43.24 64.2757 48.9277 70.215 60.303C76.1543 71.6783 80.181 84.3623 82.295 98.355C84.409 112.348 85.466 124.377 85.466 134.444C85.466 138.068 85.3653 141.239 85.164 143.957C84.9627 146.574 84.56 149.846 83.956 153.772C81.6407 156.691 79.3253 158.151 77.01 158.151ZM74.594 110.133C72.6813 91.5097 69.2587 76.913 64.326 66.343C59.3933 55.6723 51.9943 50.337 42.129 50.337C34.7803 50.337 29.3443 53.7597 25.821 60.605C22.3983 67.3497 20.3347 74.5977 19.63 82.349C18.9253 90.1003 18.573 98.808 18.573 108.472L74.594 110.133ZM136.234 158.151C124.355 158.151 115.899 152.816 110.866 142.145C105.933 131.474 103.064 117.582 102.259 100.469C102.158 98.959 102.108 96.7947 102.108 93.976C102.108 88.238 102.813 83.8087 104.222 80.688C105.732 77.4667 108.5 75.856 112.527 75.856C113.634 75.856 114.49 76.158 115.094 76.762C115.698 77.2653 116 77.97 116 78.876C116 80.7887 114.842 82.651 112.527 84.463C111.218 84.463 110.312 85.3187 109.809 87.03C109.406 88.7413 109.205 91.3587 109.205 94.882C109.205 98.1033 109.255 100.67 109.356 102.583C109.96 117.582 112.728 129.461 117.661 138.219C122.594 146.876 129.439 151.205 138.197 151.205C143.23 151.205 147.76 149.997 151.787 147.581C155.814 145.165 158.934 141.944 161.149 137.917C163.464 133.79 164.622 129.36 164.622 124.629C163.615 116.374 162.81 110.586 162.206 107.264C161.602 103.942 160.495 98.5563 158.884 91.107C158.179 88.1877 157.827 85.6207 157.827 83.406C157.827 81.0907 158.28 79.48 159.186 78.574C160.092 77.668 161.451 77.215 163.263 77.215C164.37 77.215 165.226 77.8693 165.83 79.178C166.434 80.4867 166.988 83.0537 167.491 86.879C167.994 90.7043 168.649 96.9457 169.454 105.603C169.957 110.536 170.914 115.368 172.323 120.099C173.833 124.83 175.796 130.266 178.212 136.407C178.413 137.011 178.967 138.521 179.873 140.937C180.779 143.252 181.433 145.165 181.836 146.675C182.239 148.185 182.44 149.393 182.44 150.299C182.44 152.614 181.232 153.772 178.816 153.772C178.011 153.772 175.041 147.581 169.907 135.199C168.8 139.729 166.535 143.756 163.112 147.279C159.689 150.702 155.612 153.369 150.881 155.282C146.15 157.195 141.267 158.151 136.234 158.151ZM270.599 163.134C269.894 163.939 268.888 164.342 267.579 164.342C262.848 164.342 255.298 160.013 244.929 151.356C234.661 142.598 225.551 133.89 217.598 125.233C218.101 127.951 219.058 132.531 220.467 138.974C221.071 141.491 221.574 143.907 221.977 146.222C222.48 148.537 222.732 150.349 222.732 151.658C222.732 154.577 221.675 156.339 219.561 156.943C219.058 158.252 217.699 154.98 215.484 147.128C213.37 139.276 211.357 130.216 209.444 119.948C207.632 109.579 206.726 100.922 206.726 93.976C206.726 90.4527 207.028 87.5837 207.632 85.369C208.941 84.3623 210.048 83.859 210.954 83.859C212.766 83.859 214.024 85.4193 214.729 88.54C215.434 91.56 216.088 96.3417 216.692 102.885L216.994 106.358C220.92 106.157 226.255 105.301 233 103.791C239.845 102.281 245.936 100.217 251.271 97.6C256.707 94.882 259.425 91.6607 259.425 87.936C259.425 85.9227 257.965 83.708 255.046 81.292C252.227 78.7753 247.848 76.6613 241.909 74.95C236.07 73.2387 228.873 72.383 220.316 72.383H215.484C209.746 72.383 205.266 73.3393 202.045 75.252C198.824 77.064 197.213 80.99 197.213 87.03C195.703 87.03 194.344 86.0737 193.136 84.161C191.928 82.2483 191.324 80.4867 191.324 78.876C191.324 72.6347 194.294 68.5577 200.233 66.645C206.273 64.7323 214.93 63.776 226.205 63.776C232.144 63.776 238.335 64.7323 244.778 66.645C251.221 68.5577 256.657 71.5777 261.086 75.705C265.515 79.7317 267.73 84.765 267.73 90.805C267.73 94.9323 265.868 98.355 262.143 101.073C258.519 103.791 254.241 105.905 249.308 107.415C244.375 108.925 238.335 110.485 231.188 112.096C225.249 113.405 221.373 114.361 219.561 114.965C227.312 125.434 234.762 133.588 241.909 139.427C249.157 145.266 256.707 150.551 264.559 155.282C267.277 156.893 269.19 158.101 270.297 158.906C271.404 159.711 271.958 160.466 271.958 161.171C271.958 161.876 271.505 162.53 270.599 163.134ZM348.928 158.151C347.72 158.151 346.864 157.849 346.361 157.245C345.958 156.641 345.757 155.785 345.757 154.678C345.757 152.463 346.26 149.041 347.267 144.41C348.374 140.182 348.928 136.709 348.928 133.991C348.928 126.139 348.324 120.149 347.116 116.022H342.435C338.308 116.022 332.922 115.921 326.278 115.72L312.084 115.569H291.699L292.001 121.458C292.001 126.089 292.756 131.877 294.266 138.823C294.769 141.642 295.222 144.511 295.625 147.43C296.128 150.249 296.38 152.816 296.38 155.131V156.49C295.373 157.497 294.316 158 293.209 158C290.592 158 288.528 154.93 287.018 148.789C285.508 142.548 284.753 135.048 284.753 126.29C284.753 122.767 284.904 119.294 285.206 115.871C282.991 115.77 281.481 115.418 280.676 114.814C279.871 114.109 279.468 113.052 279.468 111.643C279.468 110.536 279.77 109.781 280.374 109.378C281.079 108.975 282.287 108.673 283.998 108.472L283.847 104.395L284.3 97.449C285.005 86.0737 286.062 76.8123 287.471 69.665C288.88 62.5177 291.9 56.3267 296.531 51.092C301.162 45.8573 308.108 43.24 317.369 43.24C327.939 43.24 336.194 48.9277 342.133 60.303C348.072 71.6783 352.099 84.3623 354.213 98.355C356.327 112.348 357.384 124.377 357.384 134.444C357.384 138.068 357.283 141.239 357.082 143.957C356.881 146.574 356.478 149.846 355.874 153.772C353.559 156.691 351.243 158.151 348.928 158.151ZM346.512 110.133C344.599 91.5097 341.177 76.913 336.244 66.343C331.311 55.6723 323.912 50.337 314.047 50.337C306.698 50.337 301.262 53.7597 297.739 60.605C294.316 67.3497 292.253 74.5977 291.548 82.349C290.843 90.1003 290.491 98.808 290.491 108.472L346.512 110.133Z" fill="#FF7A57"/>
</g>
<defs>
<clipPath id="clip0_36_2">
<rect width="364" height="231" fill="white"/>
</clipPath>
</defs>
</svg>
